<svg xmlns="http://www.w3.org/2000/svg" width="1200" height="630" viewBox="0 0 1200 630">
  <defs>
    <linearGradient id="bg" x1="0" y1="0" x2="1" y2="1">
      <stop offset="0" stop-color="#071321"/>
      <stop offset="1" stop-color="#030811"/>
    </linearGradient>
    <radialGradient id="mark-bg" cx="50%" cy="45%" r="70%">
      <stop offset="0%" stop-color="#151721"/>
      <stop offset="100%" stop-color="#08090f"/>
    </radialGradient>
    <filter id="mark-glow"><feGaussianBlur stdDeviation="28" result="b"/><feMerge><feMergeNode in="b"/><feMergeNode in="SourceGraphic"/></feMerge></filter>
    <clipPath id="mark-clip"><circle cx="1024" cy="1024" r="1024"/></clipPath>
    <pattern id="grid" width="54" height="54" patternUnits="userSpaceOnUse">
      <path d="M54 0H0V54" fill="none" stroke="#65e5ff" stroke-opacity=".08"/>
    </pattern>
  </defs>
  <rect width="1200" height="630" fill="url(#bg)"/>
  <rect width="1200" height="630" fill="url(#grid)"/>
  <circle cx="1000" cy="315" r="285" fill="none" stroke="#65e5ff" stroke-opacity=".15"/>
  <circle cx="1000" cy="315" r="230" fill="none" stroke="#ff63c8" stroke-opacity=".12"/>
  <g transform="translate(795 110) scale(.2)" clip-path="url(#mark-clip)">
    <rect width="2048" height="2048" fill="url(#mark-bg)"/>
    <g fill="none" stroke-linecap="round" filter="url(#mark-glow)">
      <path d="M 1605 812 A 604 604 0 0 1 600 604" stroke="#ff46be" stroke-width="48"/>
      <path d="M 443 1236 A 604 604 0 0 1 1448 1444" stroke="#ff46be" stroke-width="48"/>
      <path d="M 612 581 A 604 604 0 0 1 443 812" stroke="#50e1ff" stroke-width="48"/>
      <path d="M 1436 1467 A 604 604 0 0 1 1605 1236" stroke="#50e1ff" stroke-width="48"/>
    </g>
    <circle cx="1024" cy="1024" r="207" fill="#020308" stroke="#ff50c3" stroke-width="26"/>
    <circle cx="1024" cy="1024" r="192" fill="none" stroke="#ffffff" stroke-opacity=".22" stroke-width="10"/>
    <g stroke="#ffffff" stroke-opacity=".4" stroke-width="14"><path d="M1024 804V629"/><path d="M1244 1024H1419"/><path d="M1024 1244V1419"/><path d="M804 1024H629"/></g>
    <g fill="#50e1ff"><circle cx="1024" cy="568" r="32"/><circle cx="1480" cy="1024" r="32"/><circle cx="1024" cy="1480" r="32"/><circle cx="568" cy="1024" r="32"/></g>
    <g fill="#080a10"><circle cx="1024" cy="568" r="14"/><circle cx="1480" cy="1024" r="14"/><circle cx="1024" cy="1480" r="14"/><circle cx="568" cy="1024" r="14"/></g>
    <g fill="none" stroke="#f5f5fa" stroke-width="24" stroke-linecap="round" stroke-linejoin="round"><path d="M935 965L890 1024L935 1083"/><path d="M1113 965L1158 1024L1113 1083"/></g>
    <circle cx="1024" cy="1024" r="20" fill="#ff4abe"/>
  </g>
  <circle cx="83" cy="80" r="8" fill="#6ce7b7"/>
  <text x="105" y="88" fill="#65e5ff" font-family="DejaVu Sans, sans-serif" font-size="20" font-weight="700" letter-spacing="5">OPEN TRANSMISSION</text>
  <text x="74" y="230" fill="#f7f8fb" font-family="DejaVu Sans, sans-serif" font-size="69" font-weight="700" letter-spacing="-4">Engineering beyond</text>
  <text x="74" y="313" fill="#f7f8fb" font-family="DejaVu Sans, sans-serif" font-size="69" font-weight="700" letter-spacing="-4">the <tspan fill="#ff63c8">event horizon.</tspan></text>
  <text x="78" y="395" fill="#a8b7c5" font-family="DejaVu Sans, sans-serif" font-size="27">Tools, automation &amp; experiments built in the open.</text>
  <line x1="78" y1="498" x2="620" y2="498" stroke="#29445b"/>
  <text x="78" y="548" fill="#f7f8fb" font-family="DejaVu Sans, sans-serif" font-size="25" font-weight="700" letter-spacing="3">OSS SINGULARITY</text>
</svg>
